<svg width="25" height="25" viewBox="0 0 25 25" fill="none" xmlns="http://www.w3.org/2000/svg">
<path d="M12.5 14.584C14.2259 14.584 15.625 13.1849 15.625 11.459C15.625 9.73309 14.2259 8.33398 12.5 8.33398C10.7741 8.33398 9.375 9.73309 9.375 11.459C9.375 13.1849 10.7741 14.584 12.5 14.584Z" stroke="#FFC11E" stroke-width="1.83333" stroke-linecap="round" stroke-linejoin="round"/>
<path d="M18.3928 17.3507L13.973 21.7705C13.5824 22.1608 13.0528 22.38 12.5006 22.38C11.9484 22.38 11.4189 22.1608 11.0282 21.7705L6.60738 17.3507C5.44198 16.1853 4.64835 14.7004 4.32684 13.0839C4.00533 11.4674 4.17039 9.7919 4.80113 8.26921C5.43187 6.74651 6.49998 5.44505 7.87038 4.52939C9.24078 3.61373 10.8519 3.125 12.5001 3.125C14.1482 3.125 15.7594 3.61373 17.1298 4.52939C18.5002 5.44505 19.5683 6.74651 20.199 8.26921C20.8298 9.7919 20.9948 11.4674 20.6733 13.0839C20.3518 14.7004 19.5582 16.1853 18.3928 17.3507V17.3507Z" stroke="#FFC11E" stroke-width="1.83333" stroke-linecap="round" stroke-linejoin="round"/>
</svg>
