<svg width="30" height="30" viewBox="0 0 30 30" fill="none" xmlns="http://www.w3.org/2000/svg">
<path d="M27.5 5.01325C26.25 5.62575 25.025 5.8745 23.75 6.25075C22.3488 4.6695 20.2713 4.582 18.275 5.3295C16.2788 6.077 14.9713 7.9045 15 10.0007V11.2507C10.9438 11.3545 7.33125 9.507 5 6.25075C5 6.25075 -0.2275 15.542 10 20.0008C7.66 21.5595 5.32625 22.6108 2.5 22.5008C6.635 24.7545 11.1413 25.5295 15.0425 24.397C19.5175 23.097 23.195 19.7433 24.6063 14.7195C25.0272 13.1916 25.2363 11.6131 25.2275 10.0282C25.225 9.717 27.115 6.56325 27.5 5.012V5.01325Z" stroke="white" stroke-width="1.83333" stroke-linecap="round" stroke-linejoin="round"/>
</svg>
